<svg width="111" height="19" viewBox="0 0 111 19" fill="none" xmlns="http://www.w3.org/2000/svg">
<path d="M78.3862 17.217L84.4701 8.55164L78.9207 0.272923H82.8895L84.7658 3.15C85.0463 3.58213 85.323 4.01806 85.596 4.45777C85.8689 4.89748 86.138 5.33719 86.4034 5.7769C86.6763 5.33719 86.9492 4.89748 87.2221 4.45777C87.5026 4.01806 87.7869 3.58213 88.075 3.15L89.9855 0.272923H93.8633L88.3707 8.44929L94.3523 17.217H90.3039L87.9272 13.6349C87.6618 13.2331 87.4003 12.835 87.1425 12.4408C86.8848 12.039 86.627 11.6372 86.3692 11.2354C86.1115 11.6372 85.8499 12.039 85.5846 12.4408C85.3192 12.835 85.0501 13.2331 84.7772 13.6349L82.3322 17.217H78.3862Z" fill="white"/>
<path d="M70.0506 17.4899C68.6405 17.4899 67.4123 17.2322 66.3661 16.7166C65.3199 16.1935 64.5087 15.4695 63.9326 14.5446C63.364 13.6121 63.0797 12.5356 63.0797 11.315V0.272923H66.5026V11.0307C66.5026 12.0238 66.8248 12.8464 67.4692 13.4984C68.1136 14.1428 68.9741 14.465 70.0506 14.465C71.1347 14.465 71.999 14.1428 72.6434 13.4984C73.2878 12.854 73.61 12.0314 73.61 11.0307V0.272923H77.0329V11.315C77.0329 12.5356 76.7449 13.6121 76.1687 14.5446C75.5925 15.4695 74.7813 16.1935 73.7351 16.7166C72.6889 17.2322 71.4607 17.4899 70.0506 17.4899Z" fill="white"/>
<path d="M50.2068 17.217V0.272923H53.5615V9.80254H53.5956L57.8032 5.20831H61.7378L57.0413 10.4166L61.988 17.217H58.0647L54.5281 12.3385L53.5615 13.4074V17.217H50.2068Z" fill="white"/>
<path d="M42.7696 17.4899C41.5642 17.4899 40.5104 17.2284 39.6082 16.7053C38.706 16.1746 38.001 15.4392 37.493 14.4991C36.9927 13.5515 36.7425 12.4598 36.7425 11.224C36.7425 9.9807 36.9927 8.889 37.493 7.94893C38.001 7.00127 38.706 6.2621 39.6082 5.73141C40.5104 5.20073 41.5642 4.93538 42.7696 4.93538C43.8234 4.93538 44.7597 5.14008 45.5784 5.54946C46.4048 5.95127 47.0644 6.51228 47.5571 7.2325C48.0575 7.94514 48.3418 8.7677 48.41 9.70019H45.169C45.0781 9.08611 44.8279 8.58954 44.4185 8.21048C44.0167 7.83142 43.4822 7.64189 42.8151 7.64189C41.9735 7.64189 41.314 7.96409 40.8364 8.60849C40.3587 9.2529 40.1199 10.1247 40.1199 11.224C40.1199 12.3157 40.3587 13.1838 40.8364 13.8282C41.314 14.465 41.9735 14.7834 42.8151 14.7834C43.4898 14.7834 44.0205 14.5939 44.4071 14.2148C44.7938 13.8358 45.0402 13.3316 45.1463 12.7024H48.41C48.3645 13.6273 48.0954 14.4498 47.6026 15.1701C47.1098 15.8903 46.4465 16.4589 45.6125 16.8758C44.7862 17.2852 43.8385 17.4899 42.7696 17.4899Z" fill="white"/>
<path d="M31.5342 17.217V5.2083H34.8889V17.217H31.5342ZM33.2058 3.69584C32.6524 3.69584 32.1938 3.52906 31.8299 3.19548C31.466 2.85433 31.284 2.42599 31.284 1.91046C31.284 1.39494 31.466 0.970388 31.8299 0.636814C32.1938 0.295658 32.6524 0.12508 33.2058 0.12508C33.7517 0.12508 34.2066 0.295658 34.5705 0.636814C34.9344 0.970388 35.1163 1.39494 35.1163 1.91046C35.1163 2.42599 34.9344 2.85433 34.5705 3.19548C34.2066 3.52906 33.7517 3.69584 33.2058 3.69584Z" fill="white"/>
<path d="M22.1069 17.4672C20.8256 17.4672 19.8022 17.0578 19.0365 16.239C18.2708 15.4126 17.8879 14.2413 17.8879 12.7251V5.20829H21.2426V12.111C21.2426 12.9146 21.4321 13.5287 21.8112 13.9533C22.1978 14.3702 22.7437 14.5787 23.4487 14.5787C24.1386 14.5787 24.7034 14.3626 25.1431 13.9305C25.5829 13.4984 25.8027 12.8161 25.8027 11.8836V5.20829H29.146V17.217H25.8596V15.3293C25.4502 16.0116 24.9385 16.5385 24.3244 16.9099C23.7103 17.2814 22.9711 17.4672 22.1069 17.4672Z" fill="white"/>
<path d="M7.98305 17.4899C6.4668 17.4899 5.10597 17.1374 3.90055 16.4323C2.69513 15.7197 1.74369 14.7114 1.04621 13.4074C0.348737 12.0959 0 10.5455 0 8.75633C0 6.952 0.348737 5.39784 1.04621 4.09387C1.74369 2.78232 2.69513 1.77401 3.90055 1.06895C5.10597 0.356318 6.4668 0 7.98305 0C9.50687 0 10.8677 0.356318 12.0655 1.06895C13.271 1.77401 14.2224 2.78232 14.9199 4.09387C15.6249 5.39784 15.9775 6.952 15.9775 8.75633C15.9775 10.2802 15.7197 11.6334 15.2042 12.8161C14.6887 13.9912 13.9836 14.954 13.089 15.7045L15.443 18.6271H12.2589L10.9511 16.9668C10.0262 17.3156 9.03684 17.4899 7.98305 17.4899ZM6.62979 11.3946H9.58648L10.9852 13.18C11.4477 12.6948 11.8078 12.0807 12.0655 11.3377C12.3233 10.5948 12.4522 9.73431 12.4522 8.75633C12.4522 6.952 12.0352 5.55705 11.2013 4.57149C10.3673 3.58593 9.2946 3.09315 7.98305 3.09315C6.67907 3.09315 5.61012 3.58593 4.77618 4.57149C3.94224 5.55705 3.52528 6.952 3.52528 8.75633C3.52528 10.5531 3.94224 11.9442 4.77618 12.9298C5.61012 13.9078 6.67907 14.3968 7.98305 14.3968C8.2863 14.3968 8.57817 14.3702 8.85868 14.3172L6.62979 11.3946Z" fill="white"/>
<path d="M95.2764 0.0902901H104.64L111 8.77281L104.64 17.1148H95.2764L101.636 8.77281L95.2764 0.0902901Z" fill="white"/>
</svg>
