<svg width="117" height="21" viewBox="0 0 117 21" fill="none" xmlns="http://www.w3.org/2000/svg">
  <path d="M99.4473 1.62695H108.811L115.171 10.3095L108.811 18.6515H99.4473L105.807 10.3095L99.4473 1.62695Z" fill="#0058FC"/>
  <path d="M80.8335 18.844L86.9174 10.1786L81.368 1.8999H85.3368L87.2131 4.77698C87.4936 5.20911 87.7703 5.64504 88.0433 6.08475C88.3162 6.52446 88.5853 6.96417 88.8507 7.40388C89.1236 6.96417 89.3965 6.52446 89.6694 6.08475C89.9499 5.64504 90.2342 5.20911 90.5223 4.77698L92.4328 1.8999H96.3106L90.818 10.0763L96.7996 18.844H92.7512L90.3745 15.2618C90.1091 14.86 89.8476 14.462 89.5898 14.0678C89.3321 13.666 89.0743 13.2642 88.8165 12.8624C88.5588 13.2642 88.2972 13.666 88.0319 14.0678C87.7665 14.462 87.4974 14.86 87.2245 15.2618L84.7795 18.844H80.8335Z" fill="#0058FC"/>
  <path d="M72.4978 19.1169C71.0877 19.1169 69.8595 18.8591 68.8133 18.3436C67.7671 17.8205 66.9559 17.0965 66.3797 16.1716C65.8112 15.2391 65.5269 14.1626 65.5269 12.942V1.8999H68.9498V12.6577C68.9498 13.6508 69.272 14.4734 69.9164 15.1254C70.5608 15.7698 71.4213 16.092 72.4978 16.092C73.5819 16.092 74.4462 15.7698 75.0906 15.1254C75.735 14.481 76.0572 13.6584 76.0572 12.6577V1.8999H79.4801V12.942C79.4801 14.1626 79.192 15.2391 78.6159 16.1716C78.0397 17.0965 77.2285 17.8205 76.1823 18.3436C75.1361 18.8591 73.9079 19.1169 72.4978 19.1169Z" fill="#0058FC"/>
  <path d="M52.6538 18.844V1.8999H56.0085V11.4295H56.0426L60.2502 6.83529H64.1849L59.4883 12.0436L64.4351 18.844H60.5118L56.9751 13.9654L56.0085 15.0344V18.844H52.6538Z" fill="#0058FC"/>
  <path d="M45.217 19.117C44.0116 19.117 42.9578 18.8555 42.0557 18.3324C41.1535 17.8017 40.4484 17.0663 39.9405 16.1262C39.4401 15.1786 39.1899 14.0869 39.1899 12.8511C39.1899 11.6078 39.4401 10.5161 39.9405 9.57604C40.4484 8.62839 41.1535 7.88922 42.0557 7.35853C42.9578 6.82784 44.0116 6.5625 45.217 6.5625C46.2708 6.5625 47.2071 6.76719 48.0259 7.17658C48.8522 7.57839 49.5118 8.1394 50.0046 8.85962C50.5049 9.57225 50.7892 10.3948 50.8575 11.3273H47.6165C47.5255 10.7132 47.2753 10.2167 46.8659 9.8376C46.4641 9.45853 45.9297 9.269 45.2625 9.269C44.421 9.269 43.7614 9.59121 43.2838 10.2356C42.8062 10.88 42.5674 11.7519 42.5674 12.8511C42.5674 13.9428 42.8062 14.8109 43.2838 15.4553C43.7614 16.0921 44.421 16.4105 45.2625 16.4105C45.9372 16.4105 46.4679 16.221 46.8546 15.8419C47.2412 15.4629 47.4876 14.9587 47.5937 14.3295H50.8575C50.812 15.2544 50.5428 16.077 50.0501 16.7972C49.5573 17.5174 48.8939 18.086 48.06 18.503C47.2336 18.9123 46.286 19.117 45.217 19.117Z" fill="#0058FC"/>
  <path d="M33.9816 18.8439V6.83518H37.3363V18.8439H33.9816ZM35.6533 5.32272C35.0999 5.32272 34.6412 5.15593 34.2773 4.82236C33.9134 4.4812 33.7314 4.05286 33.7314 3.53734C33.7314 3.02181 33.9134 2.59726 34.2773 2.26369C34.6412 1.92253 35.0999 1.75195 35.6533 1.75195C36.1991 1.75195 36.654 1.92253 37.0179 2.26369C37.3818 2.59726 37.5638 3.02181 37.5638 3.53734C37.5638 4.05286 37.3818 4.4812 37.0179 4.82236C36.654 5.15593 36.1991 5.32272 35.6533 5.32272Z" fill="#0058FC"/>
  <path d="M24.5539 19.0943C23.2727 19.0943 22.2492 18.6849 21.4835 17.8662C20.7178 17.0398 20.335 15.8685 20.335 14.3522V6.83545H23.6897V13.7382C23.6897 14.5418 23.8792 15.1559 24.2583 15.5804C24.6449 15.9974 25.1907 16.2059 25.8958 16.2059C26.5857 16.2059 27.1505 15.9898 27.5902 15.5577C28.0299 15.1255 28.2498 14.4432 28.2498 13.5107V6.83545H31.5931V18.8441H28.3066V16.9564C27.8972 17.6387 27.3855 18.1656 26.7714 18.5371C26.1574 18.9086 25.4182 19.0943 24.5539 19.0943Z" fill="#0058FC"/>
  <path d="M10.4303 19.1169C8.91406 19.1169 7.55323 18.7643 6.34781 18.0593C5.1424 17.3467 4.19095 16.3384 3.49348 15.0344C2.796 13.7228 2.44727 12.1725 2.44727 10.3833C2.44727 8.57895 2.796 7.0248 3.49348 5.72082C4.19095 4.40927 5.1424 3.40096 6.34781 2.69591C7.55323 1.98327 8.91406 1.62695 10.4303 1.62695C11.9541 1.62695 13.315 1.98327 14.5128 2.69591C15.7182 3.40096 16.6697 4.40927 17.3671 5.72082C18.0722 7.0248 18.4247 8.57895 18.4247 10.3833C18.4247 11.9071 18.167 13.2604 17.6514 14.443C17.1359 15.6181 16.4309 16.581 15.5363 17.3315L17.8903 20.2541H14.7061L13.3984 18.5938C12.4735 18.9425 11.4841 19.1169 10.4303 19.1169ZM9.07706 13.0216H12.0337L13.4325 14.8069C13.8949 14.3217 14.255 13.7077 14.5128 12.9647C14.7706 12.2217 14.8995 11.3613 14.8995 10.3833C14.8995 8.57895 14.4825 7.184 13.6485 6.19844C12.8146 5.21288 11.7419 4.7201 10.4303 4.7201C9.12634 4.7201 8.05738 5.21288 7.22345 6.19844C6.38951 7.184 5.97254 8.57895 5.97254 10.3833C5.97254 12.18 6.38951 13.5712 7.22345 14.5568C8.05738 15.5347 9.12634 16.0237 10.4303 16.0237C10.7336 16.0237 11.0254 15.9972 11.3059 15.9441L9.07706 13.0216Z" fill="#0058FC"/>
</svg>
