<svg width="327" height="355" viewBox="0 0 327 355" fill="none" xmlns="http://www.w3.org/2000/svg">
<g clip-path="url(#clip0_514_2293)">
<path d="M223 40C263.869 40 297 73.1309 297 114V234C297 274.869 263.869 308 223 308H103C62.1309 308 29 274.869 29 234V114C29 73.1309 62.1309 40 103 40H223ZM163 69C105.01 69 58 116.01 58 174C58 231.99 105.01 279 163 279C220.99 279 268 231.99 268 174C268 116.01 220.99 69 163 69Z" fill="#0058FC"/>
</g>
<defs>
<clipPath id="clip0_514_2293">
<rect width="327" height="355" fill="white"/>
</clipPath>
</defs>
</svg>
