<svg width="1397" height="355" viewBox="0 0 1397 355" fill="none" xmlns="http://www.w3.org/2000/svg">
<path d="M889.292 147.716H936.294V164.96C942.227 158.47 948.809 153.279 956.04 149.385C964.569 145.121 975.045 142.988 987.467 142.988C1006.19 142.988 1020.93 146.418 1031.69 153.279C1045.41 161.993 1052.27 178.124 1052.27 201.671V289H1003.32V212.518C1003.32 197.685 1000.54 187.672 994.977 182.481C990.527 178.031 983.945 175.806 975.23 175.806C964.476 175.806 955.947 179.144 949.643 185.818C942.042 193.791 938.241 206.584 938.241 224.199V289H889.292V147.716Z" fill="#0058FC"/>
<path d="M802.517 226.145V223.92C799.922 226.145 796.955 227.721 793.618 228.648C790.466 229.39 784.996 230.132 777.209 230.873L766.918 231.986C757.462 232.913 750.88 234.582 747.172 236.992C742.722 240.515 740.497 244.501 740.497 248.951C740.497 253.957 742.444 257.944 746.338 260.91C750.046 263.877 756.257 265.36 764.971 265.36C776.838 265.36 786.016 262.115 792.505 255.626C799.18 248.951 802.517 239.124 802.517 226.145ZM744.669 193.328H695.164C695.164 180.349 699.707 169.317 708.792 160.232C716.023 153.186 724.737 148.458 734.935 146.048C745.318 143.637 758.019 142.432 773.037 142.432C805.855 142.432 828.197 148.643 840.063 161.066C843.586 164.774 846.274 169.131 848.129 174.137C850.168 179.144 851.281 183.315 851.466 186.653C851.837 189.99 852.022 194.347 852.022 199.724V262.579C852.022 269.439 852.764 275.094 854.247 279.544C856.101 282.696 858.697 284.55 862.034 285.106V289H808.636L805.577 275.094H804.464C799.087 281.954 791.763 286.96 782.493 290.112C773.964 292.894 762.747 294.284 748.841 294.284C728.26 294.284 713.612 291.318 704.898 285.384C693.959 277.597 688.489 266.38 688.489 251.732C688.489 240.051 692.012 230.781 699.058 223.92C703.137 220.027 708.792 216.875 716.023 214.465C723.254 212.054 728.816 210.571 732.71 210.015C736.789 209.458 742.815 208.809 750.788 208.068L773.037 206.121C778.785 205.565 782.771 205.194 784.996 205.009C787.406 204.823 790.002 204.36 792.783 203.618C795.564 202.691 797.604 201.486 798.902 200.002C801.127 197.777 802.239 194.718 802.239 190.825C802.239 184.891 799.273 180.256 793.339 176.919C788.89 174.323 782.4 173.025 773.871 173.025C764.601 173.025 757.555 174.694 752.734 178.031C747.543 182.11 744.854 187.209 744.669 193.328Z" fill="#0058FC"/>
<path d="M664.73 197.777H617.728C617.172 189.619 613.649 183.501 607.159 179.422C601.782 175.899 594.088 174.137 584.076 174.137C571.282 174.137 561.548 177.938 554.873 185.54C547.828 193.513 544.305 204.916 544.305 219.749C544.305 234.396 548.106 245.521 555.708 253.123C562.012 259.427 571.56 262.579 584.354 262.579C594.922 262.579 602.617 260.725 607.437 257.016C614.298 252.196 617.821 245.15 618.006 235.88H665.286V236.714C665.286 251.732 660.28 264.618 650.268 275.372C642.666 283.345 633.395 288.444 622.456 290.669C611.517 293.079 598.167 294.284 582.407 294.284C572.766 294.284 564.515 293.913 557.654 293.172C550.98 292.615 543.285 290.761 534.571 287.609C525.856 284.457 518.625 280.007 512.878 274.26C500.084 261.466 493.688 243.574 493.688 220.583C493.688 197.407 499.991 179.144 512.599 165.794C527.062 150.219 549.867 142.432 581.016 142.432C606.232 142.432 625.608 146.418 639.143 154.391C656.201 164.033 664.73 178.495 664.73 197.777Z" fill="#0058FC"/>
<path d="M321.177 244.501H369.013V245.336C369.013 251.64 372.072 256.46 378.191 259.798C383.753 262.208 391.077 263.413 400.162 263.413C409.803 263.413 416.386 262.301 419.908 260.076C425.1 257.48 427.696 253.772 427.696 248.951C427.696 243.76 424.173 239.588 417.127 236.436C413.234 234.953 405.261 233.377 393.209 231.708L376.522 229.205C356.869 226.424 343.982 222.994 337.864 218.915C327.666 212.611 322.567 202.598 322.567 188.878C322.567 172.747 329.706 160.603 343.982 152.445C355.107 145.584 372.721 142.154 396.825 142.154C415.551 142.154 432.146 144.657 446.608 149.663C462.553 156.894 470.711 169.224 471.082 186.653H424.358V186.097C424.358 180.905 421.67 177.012 416.293 174.416C411.658 172.191 405.261 171.078 397.103 171.078C388.945 171.078 382.826 172.098 378.747 174.138C373.37 177.104 370.682 180.905 370.682 185.541C370.682 189.805 373.463 193.235 379.025 195.831C380.508 196.573 382.27 197.222 384.309 197.778C386.534 198.334 388.481 198.705 390.15 198.89C392.004 199.076 394.692 199.446 398.215 200.003C401.924 200.559 405.076 201.022 407.671 201.393L426.583 204.174C443.641 206.585 456.156 210.942 464.129 217.246C473.214 224.292 477.757 234.211 477.757 247.005C477.757 258.871 473.956 268.883 466.354 277.041C459.308 284.272 450.779 289 440.767 291.225C430.94 293.45 418.703 294.563 404.056 294.563C386.812 294.563 372.628 293.45 361.504 291.225C350.565 289 341.479 284.55 334.248 277.876C325.534 269.161 321.177 258.222 321.177 245.058V244.501Z" fill="#0058FC"/>
<path d="M245.874 125.189V92.3711H294.823V125.189H245.874ZM245.874 147.716H294.823V289H245.874V147.716Z" fill="#0058FC"/>
<path d="M159.099 226.145V223.92C156.504 226.145 153.537 227.721 150.2 228.648C147.048 229.39 141.578 230.132 133.791 230.873L123.5 231.986C114.044 232.913 107.462 234.582 103.754 236.992C99.3042 240.515 97.0792 244.501 97.0792 248.951C97.0792 253.957 99.026 257.944 102.92 260.91C106.628 263.877 112.839 265.36 121.554 265.36C133.42 265.36 142.598 262.115 149.087 255.626C155.762 248.951 159.099 239.124 159.099 226.145ZM101.251 193.328H51.7461C51.7461 180.349 56.2887 169.317 65.3738 160.232C72.6049 153.186 81.3192 148.458 91.5169 146.048C101.9 143.637 114.601 142.432 129.619 142.432C162.437 142.432 184.779 148.643 196.645 161.066C200.168 164.774 202.856 169.131 204.711 174.137C206.75 179.144 207.863 183.315 208.048 186.653C208.419 189.99 208.604 194.347 208.604 199.724V262.579C208.604 269.439 209.346 275.094 210.829 279.544C212.683 282.696 215.279 284.55 218.616 285.106V289H165.218L162.159 275.094H161.046C155.669 281.954 148.346 286.96 139.075 290.112C130.546 292.894 119.329 294.284 105.423 294.284C84.8421 294.284 70.1946 291.318 61.4802 285.384C50.5409 277.597 45.0713 266.38 45.0713 251.732C45.0713 240.051 48.5941 230.781 55.6397 223.92C59.7188 220.027 65.3739 216.875 72.6049 214.465C79.8359 212.054 85.3983 210.571 89.2919 210.015C93.371 209.458 99.3969 208.809 107.37 208.068L129.619 206.121C135.367 205.565 139.353 205.194 141.578 205.009C143.988 204.823 146.584 204.36 149.365 203.618C152.146 202.691 154.186 201.486 155.484 200.002C157.709 197.777 158.821 194.718 158.821 190.825C158.821 184.891 155.855 180.256 149.922 176.919C145.472 174.323 138.982 173.025 130.453 173.025C121.183 173.025 114.137 174.694 109.316 178.031C104.125 182.11 101.436 187.209 101.251 193.328Z" fill="#0058FC"/>
<path d="M1040.86 102.822V98.8326H1044.11C1046.07 98.8326 1047.64 98.4826 1048.83 97.7827C1050.02 97.0827 1050.62 95.8579 1050.62 94.108C1050.62 93.0582 1050.41 92.2182 1049.99 91.5883C1049.57 90.8884 1048.94 90.3984 1048.1 90.1185C1047.26 89.8385 1046.24 89.6985 1045.05 89.6985H1040.02V85.3939H1045.89C1049.6 85.3939 1052.19 86.1989 1053.66 87.8087C1055.2 89.3485 1055.97 91.3783 1055.97 93.8981C1055.97 95.7879 1055.48 97.4677 1054.5 98.9375C1053.59 100.337 1051.98 101.282 1049.67 101.772L1048.94 102.402C1048.31 102.472 1047.68 102.577 1047.05 102.717C1046.42 102.787 1045.79 102.822 1045.16 102.822H1040.86ZM1036.55 112.166V85.3939H1041.7V112.166H1036.55ZM1051.88 112.166L1045.37 101.877L1050.51 100.932L1058.18 112.166H1051.88ZM1046.21 123.82C1041.38 123.82 1037.15 122.77 1033.51 120.67C1029.87 118.571 1027.03 115.666 1025 111.956C1022.97 108.247 1021.96 103.942 1021.96 99.0425C1021.96 94.213 1022.97 90.0135 1025 86.4438C1027.03 82.8742 1029.87 80.0745 1033.51 78.0447C1037.15 76.0149 1041.38 75 1046.21 75C1051.04 75 1055.27 76.0149 1058.91 78.0447C1062.55 80.0745 1065.35 82.8742 1067.31 86.4438C1069.34 90.0135 1070.36 94.213 1070.36 99.0425C1070.36 103.942 1069.34 108.247 1067.31 111.956C1065.35 115.666 1062.55 118.571 1058.91 120.67C1055.27 122.77 1051.04 123.82 1046.21 123.82ZM1046.21 120.67C1050.34 120.67 1053.94 119.795 1057.02 118.046C1060.1 116.226 1062.52 113.671 1064.27 110.381C1066.02 107.092 1066.89 103.312 1066.89 99.0425C1066.89 94.843 1066.02 91.2033 1064.27 88.1237C1062.52 84.974 1060.1 82.5242 1057.02 80.7744C1053.94 79.0246 1050.34 78.1497 1046.21 78.1497C1042.08 78.1497 1038.44 79.0246 1035.29 80.7744C1032.21 82.5242 1029.8 84.974 1028.05 88.1237C1026.3 91.2033 1025.42 94.843 1025.42 99.0425C1025.42 103.312 1026.3 107.092 1028.05 110.381C1029.8 113.671 1032.21 116.226 1035.29 118.046C1038.44 119.795 1042.08 120.67 1046.21 120.67Z" fill="#0058FC"/>
<path d="M1293 40C1333.87 40 1367 73.1309 1367 114V234C1367 274.869 1333.87 308 1293 308H1173C1132.13 308 1099 274.869 1099 234V114C1099 73.1309 1132.13 40 1173 40H1293ZM1233 69C1175.01 69 1128 116.01 1128 174C1128 231.99 1175.01 279 1233 279C1290.99 279 1338 231.99 1338 174C1338 116.01 1290.99 69 1233 69Z" fill="#0058FC"/>
</svg>
